<svg xmlns="http://www.w3.org/2000/svg" width="353" height="191" viewBox="0 0 353 191">
  <g id="Group_1" data-name="Group 1" transform="translate(-131 -131)">
    <circle id="Ellipse_1" data-name="Ellipse 1" cx="4.5" cy="4.5" r="4.5" transform="translate(131 131)" fill="#eebb31"/>
    <circle id="Ellipse_1-2" data-name="Ellipse 1" cx="4.5" cy="4.5" r="4.5" transform="translate(151 131)" fill="#eebb31"/>
    <ellipse id="Ellipse_1-3" data-name="Ellipse 1" cx="4" cy="4.5" rx="4" ry="4.5" transform="translate(172 131)" fill="#eebb31"/>
    <ellipse id="Ellipse_1-4" data-name="Ellipse 1" cx="4" cy="4.5" rx="4" ry="4.5" transform="translate(192 131)" fill="#eebb31"/>
    <circle id="Ellipse_1-5" data-name="Ellipse 1" cx="4.5" cy="4.5" r="4.5" transform="translate(212 131)" fill="#eebb31"/>
    <circle id="Ellipse_1-6" data-name="Ellipse 1" cx="4.5" cy="4.5" r="4.5" transform="translate(232 131)" fill="#eebb31"/>
    <ellipse id="Ellipse_1-7" data-name="Ellipse 1" cx="4" cy="4.5" rx="4" ry="4.5" transform="translate(253 131)" fill="#eebb31"/>
    <ellipse id="Ellipse_1-8" data-name="Ellipse 1" cx="4" cy="4.5" rx="4" ry="4.5" transform="translate(273 131)" fill="#eebb31"/>
    <circle id="Ellipse_1-9" data-name="Ellipse 1" cx="4.5" cy="4.5" r="4.5" transform="translate(293 131)" fill="#eebb31"/>
    <circle id="Ellipse_1-10" data-name="Ellipse 1" cx="4.5" cy="4.5" r="4.5" transform="translate(313 131)" fill="#eebb31"/>
    <ellipse id="Ellipse_1-11" data-name="Ellipse 1" cx="4" cy="4.5" rx="4" ry="4.5" transform="translate(334 131)" fill="#eebb31"/>
    <circle id="Ellipse_1-12" data-name="Ellipse 1" cx="4.5" cy="4.5" r="4.5" transform="translate(354 131)" fill="#eebb31"/>
    <circle id="Ellipse_1-13" data-name="Ellipse 1" cx="4.5" cy="4.5" r="4.5" transform="translate(374 131)" fill="#eebb31"/>
    <circle id="Ellipse_1-14" data-name="Ellipse 1" cx="4.5" cy="4.5" r="4.5" transform="translate(394 131)" fill="#eebb31"/>
    <ellipse id="Ellipse_1-15" data-name="Ellipse 1" cx="4" cy="4.5" rx="4" ry="4.5" transform="translate(415 131)" fill="#eebb31"/>
    <circle id="Ellipse_1-16" data-name="Ellipse 1" cx="4.5" cy="4.5" r="4.5" transform="translate(435 131)" fill="#eebb31"/>
    <circle id="Ellipse_1-17" data-name="Ellipse 1" cx="4.5" cy="4.5" r="4.5" transform="translate(455 131)" fill="#eebb31"/>
    <circle id="Ellipse_1-18" data-name="Ellipse 1" cx="4.5" cy="4.5" r="4.5" transform="translate(475 131)" fill="#eebb31"/>
    <circle id="Ellipse_1-19" data-name="Ellipse 1" cx="4.5" cy="4.5" r="4.5" transform="translate(131 151)" fill="#eebb31"/>
    <circle id="Ellipse_1-20" data-name="Ellipse 1" cx="4.5" cy="4.5" r="4.5" transform="translate(151 151)" fill="#eebb31"/>
    <ellipse id="Ellipse_1-21" data-name="Ellipse 1" cx="4" cy="4.5" rx="4" ry="4.5" transform="translate(172 151)" fill="#eebb31"/>
    <ellipse id="Ellipse_1-22" data-name="Ellipse 1" cx="4" cy="4.5" rx="4" ry="4.5" transform="translate(192 151)" fill="#eebb31"/>
    <circle id="Ellipse_1-23" data-name="Ellipse 1" cx="4.5" cy="4.5" r="4.5" transform="translate(212 151)" fill="#eebb31"/>
    <circle id="Ellipse_1-24" data-name="Ellipse 1" cx="4.5" cy="4.5" r="4.5" transform="translate(232 151)" fill="#eebb31"/>
    <ellipse id="Ellipse_1-25" data-name="Ellipse 1" cx="4" cy="4.5" rx="4" ry="4.5" transform="translate(253 151)" fill="#eebb31"/>
    <ellipse id="Ellipse_1-26" data-name="Ellipse 1" cx="4" cy="4.5" rx="4" ry="4.5" transform="translate(273 151)" fill="#eebb31"/>
    <circle id="Ellipse_1-27" data-name="Ellipse 1" cx="4.5" cy="4.5" r="4.5" transform="translate(293 151)" fill="#eebb31"/>
    <circle id="Ellipse_1-28" data-name="Ellipse 1" cx="4.5" cy="4.5" r="4.5" transform="translate(313 151)" fill="#eebb31"/>
    <ellipse id="Ellipse_1-29" data-name="Ellipse 1" cx="4" cy="4.5" rx="4" ry="4.5" transform="translate(334 151)" fill="#eebb31"/>
    <circle id="Ellipse_1-30" data-name="Ellipse 1" cx="4.5" cy="4.5" r="4.5" transform="translate(354 151)" fill="#eebb31"/>
    <circle id="Ellipse_1-31" data-name="Ellipse 1" cx="4.5" cy="4.5" r="4.5" transform="translate(374 151)" fill="#eebb31"/>
    <circle id="Ellipse_1-32" data-name="Ellipse 1" cx="4.5" cy="4.5" r="4.5" transform="translate(394 151)" fill="#eebb31"/>
    <ellipse id="Ellipse_1-33" data-name="Ellipse 1" cx="4" cy="4.5" rx="4" ry="4.5" transform="translate(415 151)" fill="#eebb31"/>
    <circle id="Ellipse_1-34" data-name="Ellipse 1" cx="4.5" cy="4.5" r="4.5" transform="translate(435 151)" fill="#eebb31"/>
    <circle id="Ellipse_1-35" data-name="Ellipse 1" cx="4.5" cy="4.5" r="4.5" transform="translate(455 151)" fill="#eebb31"/>
    <circle id="Ellipse_1-36" data-name="Ellipse 1" cx="4.5" cy="4.5" r="4.5" transform="translate(475 151)" fill="#eebb31"/>
    <ellipse id="Ellipse_1-37" data-name="Ellipse 1" cx="4.5" cy="4" rx="4.5" ry="4" transform="translate(131 172)" fill="#eebb31"/>
    <ellipse id="Ellipse_1-38" data-name="Ellipse 1" cx="4.5" cy="4" rx="4.5" ry="4" transform="translate(151 172)" fill="#eebb31"/>
    <circle id="Ellipse_1-39" data-name="Ellipse 1" cx="4" cy="4" r="4" transform="translate(172 172)" fill="#eebb31"/>
    <circle id="Ellipse_1-40" data-name="Ellipse 1" cx="4.5" cy="4.5" r="4.5" transform="translate(196 174)" fill="#eebb31"/>
    <ellipse id="Ellipse_1-41" data-name="Ellipse 1" cx="4.5" cy="4" rx="4.5" ry="4" transform="translate(212 172)" fill="#eebb31"/>
    <ellipse id="Ellipse_1-42" data-name="Ellipse 1" cx="4.5" cy="4" rx="4.5" ry="4" transform="translate(232 172)" fill="#eebb31"/>
    <circle id="Ellipse_1-43" data-name="Ellipse 1" cx="4" cy="4" r="4" transform="translate(253 172)" fill="#eebb31"/>
    <circle id="Ellipse_1-44" data-name="Ellipse 1" cx="4" cy="4" r="4" transform="translate(273 172)" fill="#eebb31"/>
    <ellipse id="Ellipse_1-45" data-name="Ellipse 1" cx="4.5" cy="4" rx="4.5" ry="4" transform="translate(293 172)" fill="#eebb31"/>
    <ellipse id="Ellipse_1-46" data-name="Ellipse 1" cx="4.5" cy="4" rx="4.5" ry="4" transform="translate(313 172)" fill="#eebb31"/>
    <circle id="Ellipse_1-47" data-name="Ellipse 1" cx="4" cy="4" r="4" transform="translate(334 172)" fill="#eebb31"/>
    <ellipse id="Ellipse_1-48" data-name="Ellipse 1" cx="4.5" cy="4" rx="4.5" ry="4" transform="translate(354 172)" fill="#eebb31"/>
    <ellipse id="Ellipse_1-49" data-name="Ellipse 1" cx="4.5" cy="4" rx="4.5" ry="4" transform="translate(374 172)" fill="#eebb31"/>
    <ellipse id="Ellipse_1-50" data-name="Ellipse 1" cx="4.5" cy="4" rx="4.5" ry="4" transform="translate(394 172)" fill="#eebb31"/>
    <circle id="Ellipse_1-51" data-name="Ellipse 1" cx="4" cy="4" r="4" transform="translate(415 172)" fill="#eebb31"/>
    <ellipse id="Ellipse_1-52" data-name="Ellipse 1" cx="4.5" cy="4" rx="4.5" ry="4" transform="translate(435 172)" fill="#eebb31"/>
    <ellipse id="Ellipse_1-53" data-name="Ellipse 1" cx="4.5" cy="4" rx="4.5" ry="4" transform="translate(455 172)" fill="#eebb31"/>
    <ellipse id="Ellipse_1-54" data-name="Ellipse 1" cx="4.5" cy="4" rx="4.5" ry="4" transform="translate(475 172)" fill="#eebb31"/>
    <ellipse id="Ellipse_1-55" data-name="Ellipse 1" cx="4.5" cy="4" rx="4.5" ry="4" transform="translate(131 192)" fill="#eebb31"/>
    <ellipse id="Ellipse_1-56" data-name="Ellipse 1" cx="4.5" cy="4" rx="4.5" ry="4" transform="translate(151 192)" fill="#eebb31"/>
    <circle id="Ellipse_1-57" data-name="Ellipse 1" cx="4" cy="4" r="4" transform="translate(172 192)" fill="#eebb31"/>
    <circle id="Ellipse_1-58" data-name="Ellipse 1" cx="4" cy="4" r="4" transform="translate(192 192)" fill="#eebb31"/>
    <ellipse id="Ellipse_1-59" data-name="Ellipse 1" cx="4.5" cy="4" rx="4.5" ry="4" transform="translate(212 192)" fill="#eebb31"/>
    <ellipse id="Ellipse_1-60" data-name="Ellipse 1" cx="4.5" cy="4" rx="4.5" ry="4" transform="translate(232 192)" fill="#eebb31"/>
    <circle id="Ellipse_1-61" data-name="Ellipse 1" cx="4" cy="4" r="4" transform="translate(253 192)" fill="#eebb31"/>
    <circle id="Ellipse_1-62" data-name="Ellipse 1" cx="4" cy="4" r="4" transform="translate(273 192)" fill="#eebb31"/>
    <ellipse id="Ellipse_1-63" data-name="Ellipse 1" cx="4.5" cy="4" rx="4.5" ry="4" transform="translate(293 192)" fill="#eebb31"/>
    <ellipse id="Ellipse_1-64" data-name="Ellipse 1" cx="4.5" cy="4" rx="4.5" ry="4" transform="translate(313 192)" fill="#eebb31"/>
    <circle id="Ellipse_1-65" data-name="Ellipse 1" cx="4" cy="4" r="4" transform="translate(334 192)" fill="#eebb31"/>
    <ellipse id="Ellipse_1-66" data-name="Ellipse 1" cx="4.5" cy="4" rx="4.5" ry="4" transform="translate(354 192)" fill="#eebb31"/>
    <ellipse id="Ellipse_1-67" data-name="Ellipse 1" cx="4.5" cy="4" rx="4.5" ry="4" transform="translate(374 192)" fill="#eebb31"/>
    <ellipse id="Ellipse_1-68" data-name="Ellipse 1" cx="4.5" cy="4" rx="4.5" ry="4" transform="translate(394 192)" fill="#eebb31"/>
    <circle id="Ellipse_1-69" data-name="Ellipse 1" cx="4" cy="4" r="4" transform="translate(415 192)" fill="#eebb31"/>
    <ellipse id="Ellipse_1-70" data-name="Ellipse 1" cx="4.5" cy="4" rx="4.5" ry="4" transform="translate(435 192)" fill="#eebb31"/>
    <ellipse id="Ellipse_1-71" data-name="Ellipse 1" cx="4.5" cy="4" rx="4.5" ry="4" transform="translate(455 192)" fill="#eebb31"/>
    <ellipse id="Ellipse_1-72" data-name="Ellipse 1" cx="4.5" cy="4" rx="4.5" ry="4" transform="translate(475 192)" fill="#eebb31"/>
    <circle id="Ellipse_1-73" data-name="Ellipse 1" cx="4.5" cy="4.5" r="4.5" transform="translate(131 212)" fill="#eebb31"/>
    <circle id="Ellipse_1-74" data-name="Ellipse 1" cx="4.5" cy="4.5" r="4.5" transform="translate(151 212)" fill="#eebb31"/>
    <ellipse id="Ellipse_1-75" data-name="Ellipse 1" cx="4" cy="4.5" rx="4" ry="4.5" transform="translate(172 212)" fill="#eebb31"/>
    <ellipse id="Ellipse_1-76" data-name="Ellipse 1" cx="4" cy="4.5" rx="4" ry="4.5" transform="translate(192 212)" fill="#eebb31"/>
    <circle id="Ellipse_1-77" data-name="Ellipse 1" cx="4.5" cy="4.5" r="4.5" transform="translate(212 212)" fill="#eebb31"/>
    <circle id="Ellipse_1-78" data-name="Ellipse 1" cx="4.5" cy="4.5" r="4.5" transform="translate(232 212)" fill="#eebb31"/>
    <ellipse id="Ellipse_1-79" data-name="Ellipse 1" cx="4" cy="4.5" rx="4" ry="4.5" transform="translate(253 212)" fill="#eebb31"/>
    <ellipse id="Ellipse_1-80" data-name="Ellipse 1" cx="4" cy="4.5" rx="4" ry="4.5" transform="translate(273 212)" fill="#eebb31"/>
    <circle id="Ellipse_1-81" data-name="Ellipse 1" cx="4.5" cy="4.5" r="4.5" transform="translate(293 212)" fill="#eebb31"/>
    <circle id="Ellipse_1-82" data-name="Ellipse 1" cx="4.5" cy="4.5" r="4.5" transform="translate(313 212)" fill="#eebb31"/>
    <ellipse id="Ellipse_1-83" data-name="Ellipse 1" cx="4" cy="4.5" rx="4" ry="4.5" transform="translate(334 212)" fill="#eebb31"/>
    <circle id="Ellipse_1-84" data-name="Ellipse 1" cx="4.5" cy="4.5" r="4.5" transform="translate(354 212)" fill="#eebb31"/>
    <circle id="Ellipse_1-85" data-name="Ellipse 1" cx="4.5" cy="4.5" r="4.5" transform="translate(374 212)" fill="#eebb31"/>
    <circle id="Ellipse_1-86" data-name="Ellipse 1" cx="4.5" cy="4.5" r="4.5" transform="translate(394 212)" fill="#eebb31"/>
    <ellipse id="Ellipse_1-87" data-name="Ellipse 1" cx="4" cy="4.5" rx="4" ry="4.5" transform="translate(415 212)" fill="#eebb31"/>
    <circle id="Ellipse_1-88" data-name="Ellipse 1" cx="4.5" cy="4.5" r="4.5" transform="translate(435 212)" fill="#eebb31"/>
    <circle id="Ellipse_1-89" data-name="Ellipse 1" cx="4.5" cy="4.5" r="4.5" transform="translate(455 212)" fill="#eebb31"/>
    <circle id="Ellipse_1-90" data-name="Ellipse 1" cx="4.5" cy="4.5" r="4.5" transform="translate(475 212)" fill="#eebb31"/>
    <circle id="Ellipse_1-91" data-name="Ellipse 1" cx="4.5" cy="4.5" r="4.5" transform="translate(131 232)" fill="#eebb31"/>
    <circle id="Ellipse_1-92" data-name="Ellipse 1" cx="4.5" cy="4.5" r="4.5" transform="translate(151 232)" fill="#eebb31"/>
    <ellipse id="Ellipse_1-93" data-name="Ellipse 1" cx="4" cy="4.5" rx="4" ry="4.5" transform="translate(172 232)" fill="#eebb31"/>
    <ellipse id="Ellipse_1-94" data-name="Ellipse 1" cx="4" cy="4.5" rx="4" ry="4.5" transform="translate(192 232)" fill="#eebb31"/>
    <circle id="Ellipse_1-95" data-name="Ellipse 1" cx="4.5" cy="4.5" r="4.5" transform="translate(212 232)" fill="#eebb31"/>
    <circle id="Ellipse_1-96" data-name="Ellipse 1" cx="4.5" cy="4.5" r="4.5" transform="translate(232 232)" fill="#eebb31"/>
    <ellipse id="Ellipse_1-97" data-name="Ellipse 1" cx="4" cy="4.5" rx="4" ry="4.5" transform="translate(253 232)" fill="#eebb31"/>
    <ellipse id="Ellipse_1-98" data-name="Ellipse 1" cx="4" cy="4.5" rx="4" ry="4.5" transform="translate(273 232)" fill="#eebb31"/>
    <circle id="Ellipse_1-99" data-name="Ellipse 1" cx="4.5" cy="4.5" r="4.5" transform="translate(293 232)" fill="#eebb31"/>
    <circle id="Ellipse_1-100" data-name="Ellipse 1" cx="4.5" cy="4.5" r="4.5" transform="translate(313 232)" fill="#eebb31"/>
    <ellipse id="Ellipse_1-101" data-name="Ellipse 1" cx="4" cy="4.5" rx="4" ry="4.5" transform="translate(334 232)" fill="#eebb31"/>
    <circle id="Ellipse_1-102" data-name="Ellipse 1" cx="4.5" cy="4.5" r="4.5" transform="translate(354 232)" fill="#eebb31"/>
    <circle id="Ellipse_1-103" data-name="Ellipse 1" cx="4.5" cy="4.5" r="4.5" transform="translate(374 232)" fill="#eebb31"/>
    <circle id="Ellipse_1-104" data-name="Ellipse 1" cx="4.5" cy="4.5" r="4.5" transform="translate(394 232)" fill="#eebb31"/>
    <ellipse id="Ellipse_1-105" data-name="Ellipse 1" cx="4" cy="4.5" rx="4" ry="4.5" transform="translate(415 232)" fill="#eebb31"/>
    <circle id="Ellipse_1-106" data-name="Ellipse 1" cx="4.5" cy="4.5" r="4.5" transform="translate(435 232)" fill="#eebb31"/>
    <circle id="Ellipse_1-107" data-name="Ellipse 1" cx="4.5" cy="4.5" r="4.5" transform="translate(455 232)" fill="#eebb31"/>
    <circle id="Ellipse_1-108" data-name="Ellipse 1" cx="4.5" cy="4.5" r="4.5" transform="translate(475 232)" fill="#eebb31"/>
    <ellipse id="Ellipse_1-109" data-name="Ellipse 1" cx="4.5" cy="4" rx="4.5" ry="4" transform="translate(131 253)" fill="#eebb31"/>
    <ellipse id="Ellipse_1-110" data-name="Ellipse 1" cx="4.5" cy="4" rx="4.5" ry="4" transform="translate(151 253)" fill="#eebb31"/>
    <circle id="Ellipse_1-111" data-name="Ellipse 1" cx="4" cy="4" r="4" transform="translate(172 253)" fill="#eebb31"/>
    <circle id="Ellipse_1-112" data-name="Ellipse 1" cx="4" cy="4" r="4" transform="translate(192 253)" fill="#eebb31"/>
    <ellipse id="Ellipse_1-113" data-name="Ellipse 1" cx="4.5" cy="4" rx="4.5" ry="4" transform="translate(212 253)" fill="#eebb31"/>
    <ellipse id="Ellipse_1-114" data-name="Ellipse 1" cx="4.5" cy="4" rx="4.5" ry="4" transform="translate(232 253)" fill="#eebb31"/>
    <circle id="Ellipse_1-115" data-name="Ellipse 1" cx="4" cy="4" r="4" transform="translate(253 253)" fill="#eebb31"/>
    <circle id="Ellipse_1-116" data-name="Ellipse 1" cx="4" cy="4" r="4" transform="translate(273 253)" fill="#eebb31"/>
    <ellipse id="Ellipse_1-117" data-name="Ellipse 1" cx="4.5" cy="4" rx="4.5" ry="4" transform="translate(293 253)" fill="#eebb31"/>
    <ellipse id="Ellipse_1-118" data-name="Ellipse 1" cx="4.5" cy="4" rx="4.5" ry="4" transform="translate(313 253)" fill="#eebb31"/>
    <circle id="Ellipse_1-119" data-name="Ellipse 1" cx="4" cy="4" r="4" transform="translate(334 253)" fill="#eebb31"/>
    <ellipse id="Ellipse_1-120" data-name="Ellipse 1" cx="4.5" cy="4" rx="4.5" ry="4" transform="translate(354 253)" fill="#eebb31"/>
    <ellipse id="Ellipse_1-121" data-name="Ellipse 1" cx="4.5" cy="4" rx="4.5" ry="4" transform="translate(374 253)" fill="#eebb31"/>
    <ellipse id="Ellipse_1-122" data-name="Ellipse 1" cx="4.5" cy="4" rx="4.5" ry="4" transform="translate(394 253)" fill="#eebb31"/>
    <circle id="Ellipse_1-123" data-name="Ellipse 1" cx="4" cy="4" r="4" transform="translate(415 253)" fill="#eebb31"/>
    <ellipse id="Ellipse_1-124" data-name="Ellipse 1" cx="4.5" cy="4" rx="4.5" ry="4" transform="translate(435 253)" fill="#eebb31"/>
    <ellipse id="Ellipse_1-125" data-name="Ellipse 1" cx="4.5" cy="4" rx="4.5" ry="4" transform="translate(455 253)" fill="#eebb31"/>
    <ellipse id="Ellipse_1-126" data-name="Ellipse 1" cx="4.5" cy="4" rx="4.5" ry="4" transform="translate(475 253)" fill="#eebb31"/>
    <ellipse id="Ellipse_1-127" data-name="Ellipse 1" cx="4.5" cy="4" rx="4.5" ry="4" transform="translate(131 273)" fill="#eebb31"/>
    <ellipse id="Ellipse_1-128" data-name="Ellipse 1" cx="4.5" cy="4" rx="4.5" ry="4" transform="translate(151 273)" fill="#eebb31"/>
    <circle id="Ellipse_1-129" data-name="Ellipse 1" cx="4" cy="4" r="4" transform="translate(172 273)" fill="#eebb31"/>
    <circle id="Ellipse_1-130" data-name="Ellipse 1" cx="4" cy="4" r="4" transform="translate(192 273)" fill="#eebb31"/>
    <ellipse id="Ellipse_1-131" data-name="Ellipse 1" cx="4.5" cy="4" rx="4.5" ry="4" transform="translate(212 273)" fill="#eebb31"/>
    <ellipse id="Ellipse_1-132" data-name="Ellipse 1" cx="4.5" cy="4" rx="4.5" ry="4" transform="translate(232 273)" fill="#eebb31"/>
    <circle id="Ellipse_1-133" data-name="Ellipse 1" cx="4" cy="4" r="4" transform="translate(253 273)" fill="#eebb31"/>
    <circle id="Ellipse_1-134" data-name="Ellipse 1" cx="4" cy="4" r="4" transform="translate(273 273)" fill="#eebb31"/>
    <ellipse id="Ellipse_1-135" data-name="Ellipse 1" cx="4.5" cy="4" rx="4.5" ry="4" transform="translate(293 273)" fill="#eebb31"/>
    <ellipse id="Ellipse_1-136" data-name="Ellipse 1" cx="4.5" cy="4" rx="4.5" ry="4" transform="translate(313 273)" fill="#eebb31"/>
    <circle id="Ellipse_1-137" data-name="Ellipse 1" cx="4" cy="4" r="4" transform="translate(334 273)" fill="#eebb31"/>
    <ellipse id="Ellipse_1-138" data-name="Ellipse 1" cx="4.5" cy="4" rx="4.5" ry="4" transform="translate(354 273)" fill="#eebb31"/>
    <ellipse id="Ellipse_1-139" data-name="Ellipse 1" cx="4.5" cy="4" rx="4.5" ry="4" transform="translate(374 273)" fill="#eebb31"/>
    <ellipse id="Ellipse_1-140" data-name="Ellipse 1" cx="4.5" cy="4" rx="4.5" ry="4" transform="translate(394 273)" fill="#eebb31"/>
    <circle id="Ellipse_1-141" data-name="Ellipse 1" cx="4" cy="4" r="4" transform="translate(415 273)" fill="#eebb31"/>
    <ellipse id="Ellipse_1-142" data-name="Ellipse 1" cx="4.5" cy="4" rx="4.5" ry="4" transform="translate(435 273)" fill="#eebb31"/>
    <ellipse id="Ellipse_1-143" data-name="Ellipse 1" cx="4.5" cy="4" rx="4.5" ry="4" transform="translate(455 273)" fill="#eebb31"/>
    <ellipse id="Ellipse_1-144" data-name="Ellipse 1" cx="4.5" cy="4" rx="4.5" ry="4" transform="translate(475 273)" fill="#eebb31"/>
    <circle id="Ellipse_1-145" data-name="Ellipse 1" cx="4.5" cy="4.5" r="4.5" transform="translate(131 293)" fill="#eebb31"/>
    <circle id="Ellipse_1-146" data-name="Ellipse 1" cx="4.5" cy="4.5" r="4.5" transform="translate(151 293)" fill="#eebb31"/>
    <ellipse id="Ellipse_1-147" data-name="Ellipse 1" cx="4" cy="4.5" rx="4" ry="4.5" transform="translate(172 293)" fill="#eebb31"/>
    <ellipse id="Ellipse_1-148" data-name="Ellipse 1" cx="4" cy="4.5" rx="4" ry="4.5" transform="translate(192 293)" fill="#eebb31"/>
    <circle id="Ellipse_1-149" data-name="Ellipse 1" cx="4.5" cy="4.5" r="4.5" transform="translate(212 293)" fill="#eebb31"/>
    <circle id="Ellipse_1-150" data-name="Ellipse 1" cx="4.5" cy="4.5" r="4.5" transform="translate(232 293)" fill="#eebb31"/>
    <ellipse id="Ellipse_1-151" data-name="Ellipse 1" cx="4" cy="4.5" rx="4" ry="4.5" transform="translate(253 293)" fill="#eebb31"/>
    <ellipse id="Ellipse_1-152" data-name="Ellipse 1" cx="4" cy="4.5" rx="4" ry="4.5" transform="translate(273 293)" fill="#eebb31"/>
    <circle id="Ellipse_1-153" data-name="Ellipse 1" cx="4.5" cy="4.5" r="4.5" transform="translate(293 293)" fill="#eebb31"/>
    <circle id="Ellipse_1-154" data-name="Ellipse 1" cx="4.5" cy="4.5" r="4.5" transform="translate(313 293)" fill="#eebb31"/>
    <ellipse id="Ellipse_1-155" data-name="Ellipse 1" cx="4" cy="4.5" rx="4" ry="4.5" transform="translate(334 293)" fill="#eebb31"/>
    <circle id="Ellipse_1-156" data-name="Ellipse 1" cx="4.5" cy="4.5" r="4.5" transform="translate(354 293)" fill="#eebb31"/>
    <circle id="Ellipse_1-157" data-name="Ellipse 1" cx="4.5" cy="4.5" r="4.5" transform="translate(374 293)" fill="#eebb31"/>
    <circle id="Ellipse_1-158" data-name="Ellipse 1" cx="4.5" cy="4.5" r="4.5" transform="translate(394 293)" fill="#eebb31"/>
    <ellipse id="Ellipse_1-159" data-name="Ellipse 1" cx="4" cy="4.5" rx="4" ry="4.5" transform="translate(415 293)" fill="#eebb31"/>
    <circle id="Ellipse_1-160" data-name="Ellipse 1" cx="4.5" cy="4.5" r="4.5" transform="translate(435 293)" fill="#eebb31"/>
    <circle id="Ellipse_1-161" data-name="Ellipse 1" cx="4.5" cy="4.5" r="4.5" transform="translate(455 293)" fill="#eebb31"/>
    <circle id="Ellipse_1-162" data-name="Ellipse 1" cx="4.5" cy="4.5" r="4.5" transform="translate(475 293)" fill="#eebb31"/>
    <circle id="Ellipse_1-163" data-name="Ellipse 1" cx="4.5" cy="4.5" r="4.5" transform="translate(131 313)" fill="#eebb31"/>
    <circle id="Ellipse_1-164" data-name="Ellipse 1" cx="4.5" cy="4.5" r="4.5" transform="translate(151 313)" fill="#eebb31"/>
    <ellipse id="Ellipse_1-165" data-name="Ellipse 1" cx="4" cy="4.5" rx="4" ry="4.5" transform="translate(172 313)" fill="#eebb31"/>
    <ellipse id="Ellipse_1-166" data-name="Ellipse 1" cx="4" cy="4.5" rx="4" ry="4.5" transform="translate(192 313)" fill="#eebb31"/>
    <circle id="Ellipse_1-167" data-name="Ellipse 1" cx="4.5" cy="4.5" r="4.5" transform="translate(212 313)" fill="#eebb31"/>
    <circle id="Ellipse_1-168" data-name="Ellipse 1" cx="4.5" cy="4.5" r="4.5" transform="translate(232 313)" fill="#eebb31"/>
    <ellipse id="Ellipse_1-169" data-name="Ellipse 1" cx="4" cy="4.5" rx="4" ry="4.5" transform="translate(253 313)" fill="#eebb31"/>
    <ellipse id="Ellipse_1-170" data-name="Ellipse 1" cx="4" cy="4.5" rx="4" ry="4.5" transform="translate(273 313)" fill="#eebb31"/>
    <circle id="Ellipse_1-171" data-name="Ellipse 1" cx="4.5" cy="4.5" r="4.5" transform="translate(293 313)" fill="#eebb31"/>
    <circle id="Ellipse_1-172" data-name="Ellipse 1" cx="4.5" cy="4.5" r="4.5" transform="translate(313 313)" fill="#eebb31"/>
    <ellipse id="Ellipse_1-173" data-name="Ellipse 1" cx="4" cy="4.5" rx="4" ry="4.5" transform="translate(334 313)" fill="#eebb31"/>
    <circle id="Ellipse_1-174" data-name="Ellipse 1" cx="4.5" cy="4.5" r="4.5" transform="translate(354 313)" fill="#eebb31"/>
    <circle id="Ellipse_1-175" data-name="Ellipse 1" cx="4.5" cy="4.5" r="4.5" transform="translate(374 313)" fill="#eebb31"/>
    <circle id="Ellipse_1-176" data-name="Ellipse 1" cx="4.5" cy="4.5" r="4.5" transform="translate(394 313)" fill="#eebb31"/>
    <ellipse id="Ellipse_1-177" data-name="Ellipse 1" cx="4" cy="4.5" rx="4" ry="4.5" transform="translate(415 313)" fill="#eebb31"/>
    <circle id="Ellipse_1-178" data-name="Ellipse 1" cx="4.5" cy="4.5" r="4.5" transform="translate(435 313)" fill="#eebb31"/>
    <circle id="Ellipse_1-179" data-name="Ellipse 1" cx="4.5" cy="4.5" r="4.5" transform="translate(455 313)" fill="#eebb31"/>
    <circle id="Ellipse_1-180" data-name="Ellipse 1" cx="4.5" cy="4.5" r="4.5" transform="translate(475 313)" fill="#eebb31"/>
  </g>
</svg>
